<svg width="14" height="14" viewBox="0 0 14 14" fill="none" xmlns="http://www.w3.org/2000/svg">
<path d="M8.13445 7.00445L13.5745 1.57445C13.7247 1.42278 13.809 1.21793 13.809 1.00445C13.809 0.790973 13.7247 0.586126 13.5745 0.434451C13.4228 0.284226 13.2179 0.199951 13.0045 0.199951C12.791 0.199951 12.5861 0.284226 12.4345 0.434451L7.00445 5.87445L1.57445 0.434451C1.42278 0.284226 1.21793 0.199951 1.00445 0.199951C0.790973 0.199951 0.586126 0.284226 0.434451 0.434451C0.284226 0.586126 0.199951 0.790973 0.199951 1.00445C0.199951 1.21793 0.284226 1.42278 0.434451 1.57445L5.87445 7.00445L0.434451 12.4345C0.284226 12.5861 0.199951 12.791 0.199951 13.0045C0.199951 13.2179 0.284226 13.4228 0.434451 13.5745C0.588017 13.7212 0.792019 13.8036 1.00445 13.8045C1.21649 13.8016 1.41979 13.7195 1.57445 13.5745L7.00445 8.13445L12.4345 13.5745C12.588 13.7212 12.792 13.8036 13.0045 13.8045C13.2165 13.8016 13.4198 13.7195 13.5745 13.5745C13.7247 13.4228 13.809 13.2179 13.809 13.0045C13.809 12.791 13.7247 12.5861 13.5745 12.4345L8.13445 7.00445Z" fill="#6E6E74"/>
</svg>
