<svg width="24" height="20" viewBox="0 0 24 20" fill="none" xmlns="http://www.w3.org/2000/svg">
<path d="M21.7 0.23999H2.3C1.03 0.23999 0 1.26999 0 2.53999V17.46C0 18.73 1.03 19.76 2.3 19.76H21.7C22.97 19.76 24 18.73 24 17.46V2.53999C24 1.26999 22.97 0.23999 21.7 0.23999ZM21.22 1.83999L12 11.11L2.78 1.83999H21.22ZM21.7 18.16H2.3C1.91 18.16 1.6 17.85 1.6 17.46V2.91999L11.43 12.8C11.58 12.95 11.78 13.04 12 13.04C12.22 13.04 12.42 12.96 12.57 12.8L22.4 2.91999V17.46C22.4 17.85 22.09 18.16 21.7 18.16Z" fill="#F5F5F7"/>
</svg>
