<svg width="18" height="17" viewBox="0 0 18 17" fill="none" xmlns="http://www.w3.org/2000/svg">
<path d="M16.77 15.63L13.6 12.47C14.7263 11.0551 15.2685 9.26284 15.1153 7.46088C14.962 5.65892 14.1251 3.98391 12.7761 2.77945C11.4271 1.57499 9.6683 0.932419 7.86056 0.983546C6.05282 1.03467 4.33317 1.77562 3.0544 3.0544C1.77562 4.33317 1.03467 6.05282 0.983546 7.86056C0.932419 9.6683 1.57499 11.4271 2.77945 12.7761C3.98391 14.1251 5.65892 14.962 7.46088 15.1153C9.26284 15.2685 11.0551 14.7263 12.47 13.6L15.63 16.77C15.783 16.9179 15.9873 17.0006 16.2 17.0006C16.4128 17.0006 16.6171 16.9179 16.77 16.77C16.9203 16.6184 17.0045 16.4135 17.0045 16.2C17.0045 15.9866 16.9203 15.7817 16.77 15.63ZM2.60005 8.07005C2.60005 6.98818 2.92086 5.93061 3.52191 5.03108C4.12296 4.13154 4.97726 3.43044 5.97677 3.01643C6.97628 2.60241 8.07612 2.49409 9.13719 2.70515C10.1983 2.91621 11.1729 3.43718 11.9379 4.20217C12.7029 4.96717 13.2239 5.94183 13.4349 7.0029C13.646 8.06398 13.5377 9.16381 13.1237 10.1633C12.7097 11.1628 12.0086 12.0171 11.109 12.6182C10.2095 13.2192 9.15191 13.54 8.07005 13.54C6.61931 13.54 5.228 12.9637 4.20217 11.9379C3.17635 10.9121 2.60005 9.52078 2.60005 8.07005Z" fill="#6E6E74"/>
</svg>
