<svg width="24" height="24" viewBox="0 0 24 24" fill="none" xmlns="http://www.w3.org/2000/svg">
<path d="M24 12C24 5.38 18.62 0 12 0C5.38 0 0 5.38 0 12C0 15.54 1.55 18.71 3.99 20.91V20.94L4.37 21.26C4.66 21.5 4.97 21.73 5.29 21.94C5.31 21.95 5.33 21.97 5.35 21.98C5.63 22.17 5.91 22.34 6.21 22.5C6.32 22.56 6.43 22.61 6.54 22.67C6.75 22.78 6.96 22.88 7.17 22.98C7.32 23.05 7.47 23.11 7.62 23.17C7.8 23.24 7.99 23.31 8.18 23.37C8.35 23.43 8.52 23.48 8.69 23.53C8.88 23.58 9.06 23.63 9.25 23.67C9.42 23.71 9.59 23.75 9.77 23.78C9.99 23.82 10.21 23.85 10.43 23.88C10.58 23.9 10.72 23.92 10.87 23.94C11.24 23.98 11.62 24 12 24C12.38 24 12.76 23.98 13.13 23.94C13.28 23.93 13.42 23.9 13.57 23.88C13.79 23.85 14.01 23.82 14.23 23.78C14.4 23.75 14.57 23.71 14.74 23.67C14.93 23.63 15.12 23.58 15.3 23.53C15.47 23.48 15.64 23.43 15.81 23.37C16 23.31 16.19 23.24 16.37 23.16C16.52 23.1 16.67 23.04 16.82 22.98C17.04 22.88 17.25 22.78 17.46 22.67C17.57 22.62 17.67 22.56 17.78 22.51C18.08 22.34 18.38 22.16 18.67 21.97L18.7 21.95C19.02 21.74 19.32 21.51 19.62 21.27L20 20.96V20.93C22.44 18.73 23.99 15.55 23.99 12.01L24 12ZM1.6 12C1.6 6.27 6.27 1.6 12 1.6C17.73 1.6 22.4 6.27 22.4 12C22.4 14.78 21.29 17.31 19.51 19.18C18.24 15.81 15.31 13.56 12 13.56H11.95C8.75 13.58 5.79 15.88 4.51 19.18C2.72 17.31 1.61 14.78 1.61 11.99L1.6 12ZM17.9 20.55C17.84 20.59 17.79 20.63 17.73 20.66C17.52 20.8 17.3 20.93 17.08 21.06C17.02 21.09 16.96 21.13 16.9 21.16C16.63 21.31 16.35 21.44 16.06 21.56C16.02 21.58 15.97 21.59 15.93 21.61C15.69 21.71 15.44 21.8 15.19 21.88C15.07 21.92 14.94 21.95 14.82 21.99C14.64 22.04 14.46 22.09 14.28 22.13C14.15 22.16 14.02 22.19 13.89 22.21C13.7 22.25 13.5 22.28 13.3 22.3C13.19 22.31 13.07 22.33 12.96 22.34C12.64 22.37 12.33 22.39 12 22.39C11.67 22.39 11.36 22.37 11.04 22.34C10.92 22.33 10.81 22.31 10.69 22.3C10.49 22.28 10.3 22.25 10.1 22.21C9.97 22.19 9.83 22.16 9.7 22.13C9.52 22.09 9.34 22.04 9.17 21.99C9.04 21.95 8.92 21.92 8.79 21.88C8.55 21.8 8.31 21.71 8.07 21.62C8.01 21.6 7.95 21.57 7.89 21.55C7.62 21.43 7.35 21.3 7.09 21.16C7.02 21.12 6.96 21.08 6.89 21.05C6.67 20.93 6.46 20.8 6.25 20.66C6.19 20.62 6.13 20.58 6.07 20.54C5.97 20.47 5.87 20.39 5.77 20.32C6.69 17.32 9.21 15.18 11.93 15.16C14.74 15.13 17.28 17.24 18.19 20.32C18.09 20.4 17.99 20.48 17.88 20.55H17.9Z" fill="#F5F5F7"/>
<path d="M12 12.07C14.36 12.07 16.27 10.15 16.27 7.8C16.27 5.45 14.35 3.53 12 3.53C9.65 3.53 7.73 5.45 7.73 7.8C7.73 10.15 9.65 12.07 12 12.07ZM12 5.12C13.47 5.12 14.67 6.32 14.67 7.79C14.67 9.26 13.47 10.46 12 10.46C10.53 10.46 9.33 9.26 9.33 7.79C9.33 6.32 10.53 5.12 12 5.12Z" fill="#F5F5F7"/>
</svg>
