<svg width="24" height="24" viewBox="0 0 24 24" fill="none" xmlns="http://www.w3.org/2000/svg">
<path d="M18.9184 23.78C18.7865 23.7799 18.6564 23.7491 18.5384 23.69L11.9992 20.13L5.45991 23.69C5.32744 23.7577 5.17888 23.7876 5.03051 23.7765C4.88215 23.7653 4.73971 23.7136 4.61885 23.6268C4.49799 23.54 4.40337 23.4216 4.34537 23.2845C4.28736 23.1475 4.26822 22.9972 4.29005 22.85L5.54991 15.3L0.240522 9.94998C0.134197 9.84705 0.05891 9.7163 0.0232617 9.57266C-0.0123867 9.42902 -0.00697168 9.27826 0.0388849 9.13754C0.0847414 8.99683 0.169199 8.87184 0.282631 8.77679C0.396064 8.68175 0.533905 8.62048 0.680459 8.59998L7.99963 7.49997L11.2792 0.639984C11.3519 0.513244 11.4568 0.407921 11.5832 0.334686C11.7096 0.261452 11.8531 0.2229 11.9992 0.2229C12.1453 0.2229 12.2888 0.261452 12.4152 0.334686C12.5416 0.407921 12.6464 0.513244 12.7191 0.639984L15.9987 7.49997L23.3179 8.59998C23.4636 8.61902 23.601 8.67887 23.7143 8.77264C23.8275 8.86642 23.9119 8.99029 23.9578 9.12997C24.0054 9.27081 24.0129 9.42214 23.9794 9.56699C23.9458 9.71183 23.8725 9.84446 23.7678 9.94998L18.4584 15.3L19.7083 22.85C19.734 22.9969 19.7177 23.1482 19.661 23.2862C19.6044 23.4243 19.5099 23.5434 19.3883 23.63C19.2514 23.7282 19.0869 23.7807 18.9184 23.78ZM11.9992 18.47C12.132 18.4724 12.2623 18.5067 12.3791 18.57L17.8685 21.57L16.8086 15.22C16.788 15.0949 16.7982 14.9668 16.8383 14.8465C16.8783 14.7263 16.9471 14.6176 17.0386 14.53L21.5181 10.01L15.3488 9.08997C15.2181 9.0704 15.0942 9.01917 14.9879 8.94073C14.8816 8.8623 14.7961 8.75905 14.7389 8.63998L11.9992 2.90997L9.25948 8.63998C9.20386 8.75831 9.1201 8.86119 9.01552 8.93964C8.91093 9.01809 8.78871 9.0697 8.65955 9.08997L2.48026 10.01L6.96975 14.53C7.05809 14.6196 7.12405 14.7288 7.16227 14.8487C7.2005 14.9686 7.2099 15.0958 7.18972 15.22L6.13984 21.47L11.6192 18.47C11.7443 18.4416 11.8741 18.4416 11.9992 18.47Z" fill="#F5F5F7"/>
</svg>
