<svg width="24" height="24" viewBox="0 0 24 24" fill="none" xmlns="http://www.w3.org/2000/svg">
<path d="M8.12 9.29003C8.95928 9.29197 9.78035 9.04537 10.4797 8.58132C11.179 8.11727 11.7253 7.45655 12.0496 6.68247C12.374 5.90839 12.4619 5.05561 12.3022 4.23165C12.1426 3.40769 11.7426 2.64944 11.1526 2.0525C10.5626 1.45557 9.8091 1.04668 8.98706 0.877395C8.16503 0.708106 7.31127 0.785996 6.53344 1.10124C5.75562 1.41649 5.08854 1.95498 4.61633 2.64882C4.14411 3.34266 3.8879 4.16078 3.88 5.00003C3.87472 5.56066 3.98042 6.1168 4.19102 6.63641C4.40161 7.15601 4.71293 7.62882 5.10704 8.02758C5.50116 8.42634 5.97028 8.74318 6.48738 8.95985C7.00448 9.17652 7.55934 9.28874 8.12 9.29003ZM8.12 2.39003C8.64863 2.38814 9.16583 2.5438 9.60561 2.83714C10.0454 3.13049 10.3878 3.54822 10.5891 4.03702C10.7904 4.52582 10.8415 5.06352 10.7359 5.58149C10.6303 6.09946 10.3727 6.57422 9.99608 6.94517C9.61944 7.31611 9.14083 7.56642 8.62131 7.66416C8.10179 7.76189 7.56493 7.70261 7.07925 7.49388C6.59357 7.28516 6.18109 6.93645 5.89447 6.49227C5.60784 6.04808 5.46007 5.52857 5.47 5.00003C5.48306 4.30498 5.7677 3.64267 6.26298 3.15486C6.75827 2.66705 7.42483 2.39252 8.12 2.39003Z" fill="black"/>
<path d="M8.12 10.77H8.06C3.8 10.77 0.18 14.77 0 19.59V21.34C0 21.8333 0.195964 22.3064 0.544781 22.6552C0.893599 23.0041 1.3667 23.2 1.86 23.2H14.38C14.8742 23.2 15.3484 23.0044 15.6988 22.6559C16.0492 22.3073 16.2474 21.8342 16.25 21.34V20C16.2754 17.4242 15.2794 14.9433 13.48 13.1C12.7849 12.3767 11.9533 11.7984 11.0333 11.3984C10.1132 10.9985 9.12307 10.7849 8.12 10.77ZM14.66 21.34C14.6574 21.4125 14.6268 21.4812 14.5745 21.5316C14.5223 21.582 14.4526 21.6101 14.38 21.61H1.86C1.78839 21.61 1.71972 21.5816 1.66908 21.5309C1.61845 21.4803 1.59 21.4116 1.59 21.34V19.62C1.74 15.62 4.65 12.39 8.08 12.36C8.87188 12.3686 9.65423 12.5338 10.3819 12.8462C11.1097 13.1585 11.7683 13.6119 12.32 14.18C13.0756 14.9471 13.6715 15.8566 14.0731 16.8556C14.4748 17.8546 14.6743 18.9234 14.66 20V21.34Z" fill="black"/>
<path d="M23.21 10.7701H20.53V8.09014C20.53 7.98555 20.5093 7.882 20.4689 7.78549C20.4286 7.68899 20.3695 7.60145 20.2951 7.52796C20.2207 7.45447 20.1324 7.39649 20.0354 7.35738C19.9384 7.31827 19.8346 7.29882 19.73 7.30014C19.5205 7.30014 19.3196 7.38337 19.1714 7.53153C19.0233 7.67968 18.94 7.88062 18.94 8.09014V10.7701H16.26C16.155 10.7701 16.0509 10.7908 15.9539 10.831C15.8568 10.8712 15.7686 10.9302 15.6943 11.0045C15.6201 11.0787 15.5611 11.1669 15.5209 11.264C15.4807 11.3611 15.46 11.4651 15.46 11.5701C15.46 11.6747 15.4808 11.7783 15.5211 11.8748C15.5614 11.9713 15.6205 12.0588 15.6949 12.1323C15.7694 12.2058 15.8576 12.2638 15.9546 12.3029C16.0516 12.342 16.1554 12.3615 16.26 12.3601H18.94V15.0001C18.9387 15.1047 18.9582 15.2085 18.9973 15.3055C19.0364 15.4025 19.0944 15.4908 19.1678 15.5652C19.2413 15.6397 19.3289 15.6987 19.4254 15.7391C19.5219 15.7794 19.6254 15.8001 19.73 15.8001C19.9422 15.8001 20.1457 15.7159 20.2957 15.5658C20.4457 15.4158 20.53 15.2123 20.53 15.0001V12.3601H23.21C23.4195 12.3601 23.6205 12.2769 23.7686 12.1288C23.9168 11.9806 24 11.7797 24 11.5701C24 11.3597 23.9171 11.1577 23.7693 11.008C23.6214 10.8582 23.4205 10.7728 23.21 10.7701Z" fill="black"/>
</svg>
